HIERARCHY
ROOT Hips
{
    OFFSET   0.000000   0.000000   0.000000
    CHANNELS 6 Xposition Yposition Zposition Zrotation Xrotation Yrotation
    JOINT Chest
    {
        OFFSET   0.000000   8.007240   0.000000
        CHANNELS 3 Zrotation Xrotation Yrotation
        JOINT Chest2
        {
            OFFSET   0.000000  22.077100   0.000000
            CHANNELS 3 Zrotation Xrotation Yrotation
            JOINT Neck
            {
                OFFSET   0.000000  23.254800   0.000000
                CHANNELS 3 Zrotation Xrotation Yrotation
                JOINT Head
                {
                    OFFSET   0.000000  14.370000   1.956600
                    CHANNELS 3 Zrotation Xrotation Yrotation
                    End Site
                    {
                        OFFSET   0.000000  19.566000   0.000000
                    }
                }
            }
            JOINT LeftCollar
            {
                OFFSET   3.911900  19.017000  -0.467064
                CHANNELS 3 Zrotation Xrotation Yrotation
                JOINT LeftShoulder
                {
                    OFFSET  10.383700   0.000000   0.000000
                    CHANNELS 3 Zrotation Xrotation Yrotation
                    JOINT LeftElbow
                    {
                        OFFSET  26.662100   0.001476   0.000517
                        CHANNELS 3 Zrotation Xrotation Yrotation
                        JOINT LeftWrist
                        {
                            OFFSET  28.869000  -0.000025  -0.000106
                            CHANNELS 3 Zrotation Xrotation Yrotation
                            JOINT LeftFinger0
                            {
                                OFFSET   2.044660  -2.323460   3.252850
                                CHANNELS 3 Zrotation Xrotation Yrotation
                                JOINT LeftFinger01
                                {
                                    OFFSET   3.088130   0.000000   0.000000
                                    CHANNELS 3 Zrotation Xrotation Yrotation
                                    JOINT LeftFinger02
                                    {
                                        OFFSET   2.639460   0.000000   0.000000
                                        CHANNELS 3 Zrotation Xrotation Yrotation
                                        End Site
                                        {
                                            OFFSET   2.582190   0.000000   0.000000
                                        }
                                    }
                                }
                            }
                            JOINT LeftFinger1
                            {
                                OFFSET   8.364480   0.000000   3.252850
                                CHANNELS 3 Zrotation Xrotation Yrotation
                                JOINT LeftFinger11
                                {
                                    OFFSET   4.646930   0.000000   0.000000
                                    CHANNELS 3 Zrotation Xrotation Yrotation
                                    JOINT LeftFinger12
                                    {
                                        OFFSET   2.323460   0.000000   0.000000
                                        CHANNELS 3 Zrotation Xrotation Yrotation
                                        End Site
                                        {
                                            OFFSET   2.273050   0.000000   0.000000
                                        }
                                    }
                                }
                            }
                            JOINT LeftFinger2
                            {
                                OFFSET   8.364490   0.000015   1.078090
                                CHANNELS 3 Zrotation Xrotation Yrotation
                                JOINT LeftFinger21
                                {
                                    OFFSET   5.111620   0.000000   0.000000
                                    CHANNELS 3 Zrotation Xrotation Yrotation
                                    JOINT LeftFinger22
                                    {
                                        OFFSET   2.788160   0.000016   0.000000
                                        CHANNELS 3 Zrotation Xrotation Yrotation
                                        End Site
                                        {
                                            OFFSET   2.727660   0.000000   0.000000
                                        }
                                    }
                                }
                            }
                            JOINT LeftFinger3
                            {
                                OFFSET   7.899780   0.000017  -1.078090
                                CHANNELS 3 Zrotation Xrotation Yrotation
                                JOINT LeftFinger31
                                {
                                    OFFSET   4.646930   0.000000   0.000000
                                    CHANNELS 3 Zrotation Xrotation Yrotation
                                    JOINT LeftFinger32
                                    {
                                        OFFSET   2.323470   0.000000   0.000000
                                        CHANNELS 3 Zrotation Xrotation Yrotation
                                        End Site
                                        {
                                            OFFSET   2.273050   0.000000   0.000000
                                        }
                                    }
                                }
                            }
                            JOINT LeftFinger4
                            {
                                OFFSET   7.435090   0.000000  -3.252850
                                CHANNELS 3 Zrotation Xrotation Yrotation
                                JOINT LeftFinger41
                                {
                                    OFFSET   3.717550   0.000000   0.000000
                                    CHANNELS 3 Zrotation Xrotation Yrotation
                                    JOINT LeftFinger42
                                    {
                                        OFFSET   1.858770   0.000000   0.000000
                                        CHANNELS 3 Zrotation Xrotation Yrotation
                                        End Site
                                        {
                                            OFFSET   1.818440   0.000000   0.000000
                                        }
                                    }
                                }
                            }
                        }
                    }
                }
            }
            JOINT RightCollar
            {
                OFFSET  -3.911900  19.017000  -0.467063
                CHANNELS 3 Zrotation Xrotation Yrotation
                JOINT RightShoulder
                {
                    OFFSET -10.383700   0.000019   0.000000
                    CHANNELS 3 Zrotation Xrotation Yrotation
                    JOINT RightElbow
                    {
                        OFFSET -26.662100   0.001175   0.000102
                        CHANNELS 3 Zrotation Xrotation Yrotation
                        JOINT RightWrist
                        {
                            OFFSET -28.869000   0.000016  -0.000079
                            CHANNELS 3 Zrotation Xrotation Yrotation
                            JOINT RightFinger0
                            {
                                OFFSET  -2.044660  -2.323490   3.252850
                                CHANNELS 3 Zrotation Xrotation Yrotation
                                JOINT RightFinger01
                                {
                                    OFFSET  -3.088140   0.000000   0.000000
                                    CHANNELS 3 Zrotation Xrotation Yrotation
                                    JOINT RightFinger02
                                    {
                                        OFFSET  -2.639460   0.000000   0.000000
                                        CHANNELS 3 Zrotation Xrotation Yrotation
                                        End Site
                                        {
                                            OFFSET  -2.582190   0.000000   0.000000
                                        }
                                    }
                                }
                            }
                            JOINT RightFinger1
                            {
                                OFFSET  -8.364480   0.000000   3.252850
                                CHANNELS 3 Zrotation Xrotation Yrotation
                                JOINT RightFinger11
                                {
                                    OFFSET  -4.646930   0.000000   0.000000
                                    CHANNELS 3 Zrotation Xrotation Yrotation
                                    JOINT RightFinger12
                                    {
                                        OFFSET  -2.323470   0.000000   0.000000
                                        CHANNELS 3 Zrotation Xrotation Yrotation
                                        End Site
                                        {
                                            OFFSET  -2.273050   0.000000   0.000000
                                        }
                                    }
                                }
                            }
                            JOINT RightFinger2
                            {
                                OFFSET  -8.364480   0.000000   1.078090
                                CHANNELS 3 Zrotation Xrotation Yrotation
                                JOINT RightFinger21
                                {
                                    OFFSET  -5.111620   0.000000   0.000000
                                    CHANNELS 3 Zrotation Xrotation Yrotation
                                    JOINT RightFinger22
                                    {
                                        OFFSET  -2.788160   0.000000   0.000000
                                        CHANNELS 3 Zrotation Xrotation Yrotation
                                        End Site
                                        {
                                            OFFSET  -2.727660   0.000000   0.000000
                                        }
                                    }
                                }
                            }
                            JOINT RightFinger3
                            {
                                OFFSET  -7.899780   0.000000  -1.078090
                                CHANNELS 3 Zrotation Xrotation Yrotation
                                JOINT RightFinger31
                                {
                                    OFFSET  -4.646930   0.000000   0.000000
                                    CHANNELS 3 Zrotation Xrotation Yrotation
                                    JOINT RightFinger32
                                    {
                                        OFFSET  -2.323470   0.000000   0.000000
                                        CHANNELS 3 Zrotation Xrotation Yrotation
                                        End Site
                                        {
                                            OFFSET  -2.273050   0.000000   0.000000
                                        }
                                    }
                                }
                            }
                            JOINT RightFinger4
                            {
                                OFFSET  -7.435090   0.000000  -3.252850
                                CHANNELS 3 Zrotation Xrotation Yrotation
                                JOINT RightFinger41
                                {
                                    OFFSET  -3.717550   0.000000   0.000000
                                    CHANNELS 3 Zrotation Xrotation Yrotation
                                    JOINT RightFinger42
                                    {
                                        OFFSET  -1.858770   0.000000   0.000000
                                        CHANNELS 3 Zrotation Xrotation Yrotation
                                        End Site
                                        {
                                            OFFSET  -1.818440   0.000000   0.000000
                                        }
                                    }
                                }
                            }
                        }
                    }
                }
            }
        }
    }
    JOINT LeftHip
    {
        OFFSET   9.783040   0.000000   0.000000
        CHANNELS 3 Zrotation Xrotation Yrotation
        JOINT LeftKnee
        {
            OFFSET   0.000032 -41.789100  -0.002222
            CHANNELS 3 Zrotation Xrotation Yrotation
            JOINT LeftAnkle
            {
                OFFSET   0.000087 -41.133200  -0.000135
                CHANNELS 3 Zrotation Xrotation Yrotation
                JOINT LeftToe
                {
                    OFFSET   0.000000  -6.358960  14.674500
                    CHANNELS 3 Zrotation Xrotation Yrotation
                    End Site
                    {
                        OFFSET   0.000000   0.000000   3.913200
                    }
                }
            }
        }
    }
    JOINT RightHip
    {
        OFFSET  -9.783040   0.000000   0.000000
        CHANNELS 3 Zrotation Xrotation Yrotation
        JOINT RightKnee
        {
            OFFSET   0.000047 -41.789100  -0.000896
            CHANNELS 3 Zrotation Xrotation Yrotation
            JOINT RightAnkle
            {
                OFFSET  -0.000117 -41.133300  -0.000248
                CHANNELS 3 Zrotation Xrotation Yrotation
                JOINT RightToe
                {
                    OFFSET   0.000000  -6.358970  14.674500
                    CHANNELS 3 Zrotation Xrotation Yrotation
                    End Site
                    {
                        OFFSET   0.000000   0.000000   3.913200
                    }
                }
            }
        }
    }
}
MOTION
Frames: 4
Frame Time:   0.016667
  0.504903  89.528000  -0.403645  -1.893630  -0.769729  -2.211750   0.511379   0.254170  -0.071073   1.023070   0.507691  -0.144423   1.179350   1.702410  -0.046130   1.942690   3.447850   9.104720  -0.374650   3.366790   0.951616 -75.692400  13.471100  -2.949520  -2.402040  -4.573260  -9.862680   5.724770  -7.776380  13.430600  39.421000  26.505000 -62.540000 -24.037900  -0.005878   0.011716  -7.018940  -0.002929   0.002334 -34.103400   7.005340 -10.199000 -28.415500  -0.001550  -0.002233 -19.890800   0.005007  -0.001820 -28.682300   2.437300  -4.443710 -41.456100  -0.001854  -0.000802 -27.609800   0.010469  -0.000919 -28.716200  -0.703758   1.300620 -39.818600   0.008043   0.000703 -26.519200   0.001900   0.000361 -35.433900  -0.848842   1.208430 -53.164200  -0.001806   0.000487 -35.407400   0.002236  -0.001818   2.039500   2.469290   6.021830  77.116700  13.311600   3.062450   2.213980   0.042202   3.453620 -13.097500 -16.461800  -1.363980 -43.752000  42.006900  80.095000  30.454300   0.002408  -0.001333  10.218700   0.000071   0.000900  32.022900   5.262400   8.342800  26.514800  -0.001864   0.009286  18.560300  -0.002711   0.005283  28.000600   4.670740   8.690270  34.774300  -0.001258   0.002907  23.159700   0.000621   0.013704  28.125300   4.364880   8.105820  35.520300  -0.003141   0.003017  23.656600   0.003475   0.001584  36.605500  -0.155470  -0.209151  54.908800   0.005901   0.001620  36.569300   0.013310   0.008527   2.032740   3.742270   0.745348   1.152170   0.495490   0.872727  -2.166140  -3.288530  12.046500  -0.000000   0.000000  -0.000000   1.072090  -1.250610  -4.767560   1.754380   4.832600   0.673698  -6.053630  -2.221380   0.536943   0.000000   0.000000  -0.000000
  0.498358  89.528000  -0.400087  -1.893770  -0.775230  -2.211990   0.507835   0.261247  -0.067754   1.015980   0.521877  -0.137825   1.179150   1.702110  -0.046095   1.943040   3.447660   9.077570  -0.377600   3.366570   0.933083 -75.678000  13.464100  -2.963610  -2.402790  -4.568580  -9.881650   5.735240  -7.774100  13.418900  39.430600  26.512300 -62.536200 -24.027800  -0.006113   0.011789  -7.013890  -0.003046   0.002347 -34.095000   7.005160 -10.207500 -28.408700  -0.001557  -0.002252 -19.886100   0.005002  -0.001833 -28.681400   2.443350  -4.454840 -41.439500  -0.001872  -0.000818 -27.598700   0.010464  -0.000928 -28.716300  -0.703761   1.292220 -39.816900   0.008041   0.000708 -26.518000   0.001891   0.000362 -35.432400  -0.848844   1.200650 -53.161800  -0.001820   0.000474 -35.405800   0.002213  -0.001794   2.040580   2.464100   6.007580  77.117500  13.320200   3.058130   2.219650   0.036742   3.433320 -13.069200 -16.452900  -1.358500 -43.739100  41.998600  80.082400  30.454300   0.002409  -0.001363  10.218700   0.000070   0.000900  32.025500   5.266060   8.346970  26.517200  -0.001866   0.009288  18.562000  -0.002712   0.005283  28.000200   4.670680   8.695050  34.773500  -0.001258   0.002906  23.159200   0.000623   0.013703  28.125600   4.364430   8.105810  35.518700  -0.003141   0.003011  23.655500   0.003473   0.001582  36.607800  -0.154589  -0.207989  54.912200   0.005901   0.001617  36.571500   0.013313   0.008525   2.032430   3.771390   0.741205   1.152630   0.462250   0.878404  -2.166160  -3.272470  12.046700  -0.000000   0.000000  -0.000000   1.072810  -1.234540  -4.771790   1.754750   4.822620   0.673911  -6.053430  -2.221550   0.536875  -0.000000   0.000000  -0.000000
  0.487691  89.528000  -0.393770  -1.894140  -0.786685  -2.212230   0.502301   0.273479  -0.062299   1.004900   0.546393  -0.126990   1.178940   1.701810  -0.046060   1.944450   3.447640   9.032780  -0.383062   3.366350   0.904033 -75.654800  13.456900  -2.988930  -2.404400  -4.563750  -9.911730   5.754770  -7.771880  13.405400  39.445800  26.520800 -62.530900 -24.017600  -0.006505   0.011938  -7.008830  -0.003242   0.002385 -34.086600   7.004970 -10.216100 -28.402000  -0.001572  -0.002294 -19.881400   0.004990  -0.001863 -28.680400   2.449400  -4.465980 -41.422800  -0.001912  -0.000854 -27.587600   0.010450  -0.000949 -28.716300  -0.703764   1.283820 -39.815100   0.008036   0.000720 -26.516800   0.001867   0.000364 -35.430800  -0.848846   1.192870 -53.159400  -0.001851   0.000443 -35.404200   0.002156  -0.001734   2.042340   2.455960   5.984730  77.119500  13.328800   3.048550   2.230100   0.028095   3.402670 -13.022600 -16.438200  -1.348960 -43.729100  41.989000  80.063000  30.454300   0.002409  -0.001393  10.218700   0.000069   0.000901  32.027500   5.271510   8.355540  26.519600  -0.001869   0.009291  18.563700  -0.002714   0.005284  27.999500   4.670570   8.704040  34.767900  -0.001259   0.002904  23.155400   0.000628   0.013701  28.125800   4.363990   8.105810  35.507400  -0.003141   0.002999  23.647900   0.003470   0.001575  36.610100  -0.151664  -0.204135  54.915500   0.005900   0.001609  36.573700   0.013322   0.008522   2.032300   3.803180   0.733969   1.153120   0.429009   0.888063  -2.166170  -3.256400  12.047000  -0.000000   0.000000  -0.000000   1.074290  -1.208950  -4.778130   1.755160   4.809120   0.674121  -6.053240  -2.221780   0.536807  -0.000000   0.000000   0.000000
  0.479617  89.528000  -0.387821  -1.895470  -0.800691  -2.211130   0.498449   0.284054  -0.057984   0.997196   0.567589  -0.118430   1.181840   1.704200  -0.046090   1.947970   3.451800   8.996580  -0.389184   3.366410   0.883934 -75.637600  13.464200  -3.012620  -2.406360  -4.565370  -9.932850   5.782530  -7.786440  13.403800  39.436000  26.508800 -62.517600 -24.029600  -0.006892   0.012134  -7.014720  -0.003444   0.002459 -34.100600   7.001890 -10.206800 -28.412900  -0.001591  -0.002355 -19.888800   0.004973  -0.001909 -28.681300   2.444090  -4.455750 -41.449700  -0.001969  -0.000908 -27.605400   0.010428  -0.000980 -28.716200  -0.708450   1.292310 -39.844000   0.008029   0.000737 -26.536100   0.001831   0.000369 -35.443200  -0.854715   1.200600 -53.178100  -0.001895   0.000399 -35.416600   0.002069  -0.001640   2.044080   2.450910   5.968010  77.122400  13.327600   3.035850   2.241560   0.020808   3.385050 -12.982600 -16.423200  -1.338180 -43.753500  41.994100  80.047400  30.453400   0.002405  -0.001349  10.218600   0.000076   0.000901  32.005100   5.274110   8.366660  26.501800  -0.001874   0.009293  18.551300  -0.002718   0.005289  27.998100   4.673890   8.713950  34.725700  -0.001262   0.002898  23.127300   0.000634   0.013699  28.123400   4.366810   8.110000  35.461800  -0.003142   0.002982  23.617500   0.003474   0.001564  36.589000  -0.145020  -0.195937  54.883900   0.005896   0.001600  36.552700   0.013336   0.008517   2.034160   3.804970   0.727142   1.153190   0.462503   0.897996  -2.169840  -3.273670  12.042200  -0.000000   0.000000   0.000000   1.078040  -1.193140  -4.780830   1.754990   4.806770   0.670420  -6.054330  -2.221850   0.536960   0.000000   0.000000  -0.000000
